# exported with NifSkope

mtllib !!!!PIPBOY.mtl

# low_phone.001

g low_phone.001
usemtl Material.000001

v 0.398418128490448 -0.19490897655487061 3.7760787010192871
v 0.39445701241493225 0.60723197460174561 3.8114356994628906
v -0.31246703863143921 0.61123192310333252 3.7595562934875488
v -0.30204972624778748 -0.18390446901321411 3.7092220783233643
v 2.5102403163909912 -1.0021295547485352 3.7195315361022949
v 2.5173196792602539 -0.18323361873626709 3.8059613704681396
v 1.8157023191452026 -0.19434332847595215 3.8238935470581055
v 1.815140962600708 -1.0280463695526123 3.7542595863342285
v 2.532881498336792 2.2316195964813232 3.8714346885681152
v 2.5331263542175293 1.4183371067047119 3.871976375579834
v 3.2500925064086914 1.4192914962768555 3.8057706356048584
v 3.2498340606689453 2.2321913242340088 3.805203914642334
v 2.5258803367614746 0.61174583435058594 3.8572945594787598
v 1.8197565078735352 1.4176416397094727 3.886563777923584
v 1.8182289600372314 0.6075701117515564 3.8600015640258789
v 1.1054632663726807 3.0450663566589355 3.8485269546508789
v 1.105626106262207 3.8550119400024414 3.8167147636413574
v 0.39729571342468262 3.84438157081604 3.7737250328063965
v 0.39378583431243896 3.0418288707733154 3.8099596500396729
v 2.5251660346984863 3.0382595062255859 3.8557589054107666
v 2.5161643028259277 3.8338155746459961 3.8035707473754883
v 1.8145602941513062 3.8442440032958984 3.8215339183807373
v 1.8175349235534668 3.0419168472290039 3.8585209846496582
v 0.39156568050384521 2.2313215732574463 3.8367042541503906
v -0.31311064958572388 3.0379371643066406 3.758023738861084
v -0.32126066088676453 2.2309799194335938 3.8030905723571777
v 0.40103766322135925 -1.0288548469543457 3.706782341003418
v 1.107694149017334 -1.0469183921813965 3.7574248313903809
v 1.1067663431167603 -0.20545750856399536 3.8190317153930664
v -0.29296186566352844 -1.0039153099060059 3.6247272491455078
v -0.3210487961769104 1.4176733493804932 3.8036303520202637
v -1.1134659051895142 2.2316386699676514 3.6829743385314941
v -1.1132718324661255 1.4187330007553101 3.6835384368896484
v 3.2363584041595459 3.0373704433441162 3.7826495170593262
v 3.2190322875976563 3.8283224105834961 3.7207508087158203
v 1.8195270299911499 2.2315244674682617 3.8860902786254883
v -0.30314710736274719 3.8336551189422607 3.7068345546722412
v -1.0806629657745361 3.8277764320373535 3.6007235050201416
v -1.0994679927825928 3.0368213653564453 3.6613724231719971
v -1.0796551704406738 -0.17664641141891479 3.60323166847229
v -1.0434629917144775 -0.96363961696624756 3.4804055690765381
v 3.220268726348877 -0.17610073089599609 3.7232675552368164
v 3.2370963096618652 0.61423391103744507 3.784207820892334
v 1.1061475276947021 0.60407209396362305 3.8499233722686768
v 1.1055145263671875 2.2314116954803467 3.8643507957458496
v 1.106081485748291 4.6944694519042969 3.7542214393615723
v 0.39943510293960571 4.6764392852783203 3.7036008834838867
v 0.39179089665412903 1.4174299240112305 3.8371734619140625
v 3.1879618167877197 -0.96312940120697021 3.5980651378631592
v -1.0988502502441406 0.61367899179458618 3.6629266738891602
v -0.29455432295799255 4.6520013809204102 3.6215705871582031
v 1.1057437658309937 1.4174952507019043 3.8648068904876709
v 2.5086486339569092 4.6510391235351563 3.7163779735565186
v 3.1863663196563721 4.6141762733459473 3.5949578285217285
v 1.813538670539856 4.6760635375976563 3.7510786056518555
v -1.0450590848922729 4.6136693954467773 3.4772942066192627
vt 0.85160225629806519 0.34647977352142334
vt 0.71189022064208984 0.34557199478149414
vt 0.71119356155395508 0.18356561660766602
vt 0.84968554973602295 0.18595308065414429
vt 0.9921988844871521 0.8304477334022522
vt 0.84956860542297363 0.83207005262374878
vt 0.85150367021560669 0.67127984762191772
vt 0.99671298265457153 0.67115128040313721
vt 0.42896413803100586 0.83563613891601563
vt 0.57061672210693359 0.83569234609603882
vt 0.57045042514801025 1
vt 0.42886450886726379 0.99994075298309326
vt 0.71110391616821289 0.83403182029724121
vt 0.57073789834976196 0.67220884561538696
vt 0.71183127164840698 0.67185884714126587
vt 0.28728306293487549 0.50851356983184814
vt 0.14621159434318542 0.50855082273483276
vt 0.14806319773197174 0.34622222185134888
vt 0.28784698247909546 0.34541791677474976
vt 0.28846853971481323 0.83386790752410889
vt 0.14990338683128357 0.83180487155914307
vt 0.14808712899684906 0.67101782560348511
vt 0.28783154487609863 0.67169952392578125
vt 0.42901620268821716 0.3449091911315918
vt 0.28852483630180359 0.1834179162979126
vt 0.42907577753067017 0.18155026435852051
vt 0.99685388803482056 0.34708023071289063
vt 1 0.5090252161026001
vt 0.85343950986862183 0.50881248712539673
vt 0.99251008033752441 0.18803578615188599
vt 0.57073253393173218 0.18159890174865723
vt 0.42896106839179993 0
vt 0.57054799795150757 4.4524669647216797e-05
vt 0.28862330317497253 0.99685239791870117
vt 0.15086013078689575 0.9928816556930542
vt 0.42898073792457581 0.67215615510940552
vt 0.14993152022361755 0.18570125102996826
vt 0.15095552802085876 0.0075173377990722656
vt 0.28871923685073853 0.0032078027725219727
vt 0.84842145442962646 0.0077486038208007813
vt 0.98549515008926392 0.016042888164520264
vt 0.84832614660263062 0.99316543340682983
vt 0.71067047119140625 0.99702173471450806
vt 0.71244055032730103 0.50867056846618652
vt 0.42900046706199646 0.50852537155151367
vt 0 0.50865507125854492
vt 0.0031405289191752672 0.34671241044998169
vt 0.57077491283416748 0.34496086835861206
vt 0.98540604114532471 0.98576170206069946
vt 0.71076744794845581 0.003349602222442627
vt 0.0073969466611742973 0.18767035007476807
vt 0.57076346874237061 0.50857800245285034
vt 0.0075644017197191715 0.8300824761390686
vt 0.013984884135425091 0.98539549112319946
vt 0.003205777145922184 0.67078357934951782
vt 0.014073465019464493 0.015676677227020264
vn -0.07941100001335144 -0.066501371562480927 0.99462127685546875
vn -0.062135946005582809 -0.040956012904644012 0.9972270131111145
vn -0.10235990583896637 -0.052614334970712662 0.99335503578186035
vn -0.12143538892269135 -0.087254025042057037 0.98875689506530762
vn 0.094821594655513763 -0.11362111568450928 0.98898893594741821
vn 0.078707680106163025 -0.088565222918987274 0.99295586347579956
vn 0.011383727192878723 -0.067142628133296967 0.99767845869064331
vn 0.020234093070030212 -0.086124598979949951 0.99607890844345093
vn 0.055483747273683548 0.01324529480189085 0.99837172031402588
vn 0.055482953786849976 -0.011963320896029472 0.99838793277740479
vn 0.094516277313232422 -0.011444495990872383 0.99545753002166748
vn 0.094517610967159271 0.012787497602403164 0.99544107913970947
vn 0.058627557009458542 -0.04400881752371788 0.99730938673019409
vn -0.0049745254218578339 -0.012451572343707085 0.99991011619567871
vn -0.0011902486439794302 -0.036836672574281693 0.99932056665420532
vn -0.034059233963489532 0.034425463527441025 0.99882674217224121
vn -0.033662661910057068 0.060824736952781677 0.99758064746856689
vn -0.079440459609031677 0.067568644881248474 0.99454694986343384
vn -0.062228098511695862 0.042055085301399231 0.99717551469802856
vn 0.058626227080821991 0.045198045670986176 0.99725627899169922
vn 0.078585594892501831 0.089694395661354065 0.99286413192749023
vn 0.011383550241589546 0.068270787596702576 0.99760186672210693
vn -0.0011291970731690526 0.037965439260005951 0.99927842617034912
vn -0.048098284751176834 0.018006337806582451 0.99868029356002808
vn -0.10236030071973801 0.053682699799537659 0.99329781532287598
vn -0.098394371569156647 0.022187564522027969 0.99490010738372803
vn -0.087742455303668976 -0.085331454873085022 0.99248164892196655
vn -0.033449064940214157 -0.078007131814956665 0.99639153480529785
vn -0.033662904053926468 -0.059695955365896225 0.99764883518218994
vn -0.1362389475107193 -0.11182336509227753 0.9843447208404541
vn -0.098363690078258514 -0.020997274667024612 0.99492901563644409
vn -0.14292179048061371 0.021699208766222 0.98949611186981201
vn -0.14295095205307007 -0.020508762449026108 0.98951727151870728
vn 0.10336911678314209 0.04898359626531601 0.99343615770339966
vn 0.12943187355995178 0.10355160385370255 0.98616653680801392
vn -0.0049440795555710793 0.013672515749931335 0.99989432096481323
vn -0.12140557914972305 0.088261678814888 0.98867112398147583
vn -0.14636929333209991 0.10193357616662979 0.98396420478820801
vn -0.13223962485790253 0.057406581938266754 0.98955404758453369
vn -0.14649006724357605 -0.10095607489347458 0.98404699563980103
vn -0.16422492265701294 -0.13074514269828796 0.97771972417831421
vn 0.12958528101444244 -0.1024230420589447 0.98626422882080078
vn 0.10342919081449509 -0.047792896628379822 0.9934878945350647
vn -0.034059498459100723 -0.03329651802778244 0.99886500835418701
vn -0.034425504505634308 0.013489426113665104 0.99931621551513672
vn -0.033479470759630203 0.079197108745574951 0.99629658460617065
vn -0.087741918861865997 0.086460120975971222 0.99238401651382446
vn -0.048067342489957809 -0.016846459358930588 0.99870204925537109
vn 0.14929781854152679 -0.13278715312480927 0.97983556985855103
vn -0.13229963183403015 -0.056337978690862656 0.98960739374160767
vn -0.13611599802970886 0.1128297820687294 0.98424685001373291
vn -0.034424956887960434 -0.012360024265944958 0.99933087825775146
vn 0.094639018177986145 0.11478146910667419 0.98887240886688232
vn 0.14902523159980774 0.13388770818710327 0.97972726821899414
vn 0.020172838121652603 0.087313897907733917 0.99597656726837158
vn -0.16401135921478271 0.13169130682945251 0.97762858867645264
f 5/5/5 49/49/49 6/6/6
f 49/49/49 42/42/42 6/6/6
f 6/6/6 42/42/42 13/13/13
f 42/42/42 43/43/43 13/13/13
f 13/13/13 43/43/43 10/10/10
f 43/43/43 11/11/11 10/10/10
f 10/10/10 11/11/11 9/9/9
f 11/11/11 12/12/12 9/9/9
f 9/9/9 12/12/12 20/20/20
f 12/12/12 34/34/34 20/20/20
f 20/20/20 34/34/34 21/21/21
f 34/34/34 35/35/35 21/21/21
f 21/21/21 35/35/35 53/53/53
f 35/35/35 54/54/54 53/53/53
f 46/46/46 47/47/47 17/17/17
f 47/47/47 18/18/18 17/17/17
f 17/17/17 18/18/18 16/16/16
f 18/18/18 19/19/19 16/16/16
f 16/16/16 19/19/19 45/45/45
f 19/19/19 24/24/24 45/45/45
f 45/45/45 24/24/24 52/52/52
f 24/24/24 48/48/48 52/52/52
f 52/52/52 48/48/48 44/44/44
f 48/48/48 2/2/2 44/44/44
f 44/44/44 2/2/2 29/29/29
f 2/2/2 1/1/1 29/29/29
f 29/29/29 1/1/1 28/28/28
f 1/1/1 27/27/27 28/28/28
f 47/47/47 51/51/51 18/18/18
f 51/51/51 37/37/37 18/18/18
f 18/18/18 37/37/37 19/19/19
f 37/37/37 25/25/25 19/19/19
f 19/19/19 25/25/25 24/24/24
f 25/25/25 26/26/26 24/24/24
f 24/24/24 26/26/26 48/48/48
f 26/26/26 31/31/31 48/48/48
f 48/48/48 31/31/31 2/2/2
f 31/31/31 3/3/3 2/2/2
f 2/2/2 3/3/3 1/1/1
f 3/3/3 4/4/4 1/1/1
f 1/1/1 4/4/4 27/27/27
f 4/4/4 30/30/30 27/27/27
f 51/51/51 56/56/56 37/37/37
f 56/56/56 38/38/38 37/37/37
f 37/37/37 38/38/38 25/25/25
f 38/38/38 39/39/39 25/25/25
f 25/25/25 39/39/39 26/26/26
f 39/39/39 32/32/32 26/26/26
f 26/26/26 32/32/32 31/31/31
f 32/32/32 33/33/33 31/31/31
f 31/31/31 33/33/33 3/3/3
f 33/33/33 50/50/50 3/3/3
f 3/3/3 50/50/50 4/4/4
f 50/50/50 40/40/40 4/4/4
f 4/4/4 40/40/40 30/30/30
f 40/40/40 41/41/41 30/30/30
f 28/28/28 8/8/8 29/29/29
f 8/8/8 7/7/7 29/29/29
f 29/29/29 7/7/7 44/44/44
f 7/7/7 15/15/15 44/44/44
f 44/44/44 15/15/15 52/52/52
f 15/15/15 14/14/14 52/52/52
f 52/52/52 14/14/14 45/45/45
f 14/14/14 36/36/36 45/45/45
f 45/45/45 36/36/36 16/16/16
f 36/36/36 23/23/23 16/16/16
f 16/16/16 23/23/23 17/17/17
f 23/23/23 22/22/22 17/17/17
f 17/17/17 22/22/22 46/46/46
f 22/22/22 55/55/55 46/46/46
f 8/8/8 5/5/5 7/7/7
f 5/5/5 6/6/6 7/7/7
f 7/7/7 6/6/6 15/15/15
f 6/6/6 13/13/13 15/15/15
f 15/15/15 13/13/13 14/14/14
f 13/13/13 10/10/10 14/14/14
f 14/14/14 10/10/10 36/36/36
f 10/10/10 9/9/9 36/36/36
f 36/36/36 9/9/9 23/23/23
f 9/9/9 20/20/20 23/23/23
f 23/23/23 20/20/20 22/22/22
f 20/20/20 21/21/21 22/22/22
f 22/22/22 21/21/21 55/55/55
f 21/21/21 53/53/53 55/55/55
