# exported with NifSkope

mtllib !!!COSMOSGLASS.mtl

# GO_M11_Helmet1:0

g GO_M11_Helmet1:0
usemtl Material.000001

v -3.90234375 10.796875 10.9765625
v -3.90234375 9.1875 15.4609375
v 0.0006999969482421875 9.59375 15.5703125
v 0.0006999969482421875 11.1953125 11.0859375
v 3.904296875 10.796875 10.9765625
v 3.904296875 9.1875 15.4609375
v -6.15234375 10.0625 10.78125
v -6.15234375 8.4609375 15.265625
v 6.15234375 10.0625 10.78125
v 6.15234375 8.4609375 15.265625
v -7.98046875 8.8125 10.4453125
v -7.98046875 7.203125 14.9296875
v 7.98046875 8.8125 10.4453125
v 7.98046875 7.203125 14.9296875
v 7.98046875 9.6640625 5.7578125
v 6.15234375 10.9140625 6.09375
v 3.904296875 11.6484375 6.2890625
v 0.0006999969482421875 12.046875 6.39453125
v -3.90234375 11.6484375 6.2890625
v -6.15234375 10.9140625 6.09375
v -7.98046875 9.6640625 5.7578125
vt 0.896484375 0.8956298828125
vt 0.8974609375 0.9777984619140625
vt 0.8291015625 0.9779052734375
vt 0.8291015625 0.8956298828125
vt 0.76220703125 0.8956298828125
vt 0.7607421875 0.9777984619140625
vt 0.93701171875 0.8956298828125
vt 0.93896484375 0.9779052734375
vt 0.72119140625 0.8956298828125
vt 0.71923828125 0.9779052734375
vt 0.9755859375 0.8956298828125
vt 0.97802734375 0.9785003662109375
vt 0.6826171875 0.8956298828125
vt 0.68017578125 0.9785003662109375
vt 0.68017578125 0.812744140625
vt 0.71923828125 0.8133544921875
vt 0.7607421875 0.8134765625
vt 0.8291015625 0.8133544921875
vt 0.8974609375 0.8134765625
vt 0.93896484375 0.8133544921875
vt 0.97802734375 0.812744140625
vn -0.21568627655506134 0.93725490570068359 0.24705882370471954
vn -0.21568627655506134 0.91372549533843994 0.32549020648002625
vn -0.0039215688593685627 0.93725490570068359 0.3333333432674408
vn -0.0039215688593685627 0.96078431606292725 0.25490197539329529
vn 0.20784313976764679 0.93725490570068359 0.24705882370471954
vn 0.20784313976764679 0.91372549533843994 0.32549020648002625
vn -0.45098039507865906 0.85882353782653809 0.22352941334247589
vn -0.45882353186607361 0.83529412746429443 0.29411765933036804
vn 0.44313725829124451 0.85882353782653809 0.22352941334247589
vn 0.45098039507865906 0.83529412746429443 0.29411765933036804
vn -0.58431375026702881 0.78039216995239258 0.20784313976764679
vn -0.58431375026702881 0.76470589637756348 0.27058824896812439
vn 0.57647061347961426 0.78039216995239258 0.20784313976764679
vn 0.57647061347961426 0.76470589637756348 0.27058824896812439
vn 0.57647061347961426 0.79607844352722168 0.14509804546833038
vn 0.45098039507865906 0.87450981140136719 0.15294118225574493
vn 0.20784313976764679 0.96078431606292725 0.16862745583057404
vn -0.0039215688593685627 0.97647058963775635 0.17647059261798859
vn -0.21568627655506134 0.96078431606292725 0.16862745583057404
vn -0.45882353186607361 0.87450981140136719 0.15294118225574493
vn -0.58431375026702881 0.79607844352722168 0.14509804546833038
f 11/11/11 12/12/12 8/8/8
f 8/8/8 7/7/7 11/11/11
f 7/7/7 8/8/8 2/2/2
f 11/11/11 7/7/7 20/20/20
f 20/20/20 21/21/21 11/11/11
f 2/2/2 1/1/1 7/7/7
f 7/7/7 1/1/1 19/19/19
f 19/19/19 20/20/20 7/7/7
f 1/1/1 2/2/2 3/3/3
f 3/3/3 4/4/4 1/1/1
f 1/1/1 4/4/4 18/18/18
f 18/18/18 19/19/19 1/1/1
f 5/5/5 4/4/4 3/3/3
f 18/18/18 4/4/4 5/5/5
f 3/3/3 6/6/6 5/5/5
f 5/5/5 17/17/17 18/18/18
f 9/9/9 5/5/5 6/6/6
f 17/17/17 5/5/5 9/9/9
f 6/6/6 10/10/10 9/9/9
f 9/9/9 16/16/16 17/17/17
f 13/13/13 9/9/9 10/10/10
f 16/16/16 9/9/9 13/13/13
f 10/10/10 14/14/14 13/13/13
f 13/13/13 15/15/15 16/16/16
