# exported with NifSkope

mtllib 111GASMASKGLASSS.mtl

# Glass

g Glass
usemtl Material.000001

v -0.6513671875 10.625 -2.021484375
v 0 8.5234375 6.1171875
v 0 10.6328125 -2.041015625
v -1.4130859375 10.3515625 -1.998046875
v -1.40234375 8.3671875 5.9765625
v 0.6513671875 10.625 -2.021484375
v 1.40234375 8.3671875 5.9765625
v 1.4130859375 10.3515625 -1.998046875
v 2.09375 9.84375 -1.97265625
v 2.400390625 8.015625 5.6953125
v 3.056640625 7.70703125 5.43359375
v 2.6796875 9.1953125 -1.83984375
v 3.453125 7.47265625 5.125
v 3.216796875 8.59375 -1.525390625
v 3.861328125 7.16796875 4.73828125
v 3.671875 8.0234375 -0.97412109375
v 4.10546875 6.92578125 4.32421875
v 3.96484375 7.609375 -0.451904296875
v 4.38671875 6.671875 3.259765625
v 4.14453125 7.26953125 0.032379150390625
v 4.4375 6.65625 2.337890625
v 4.42578125 6.7421875 1.6064453125
v -2.400390625 8.015625 5.6953125
v -2.09375 9.84375 -1.97265625
v -3.056640625 7.70703125 5.43359375
v -2.81640625 9.1953125 -1.83984375
v -3.453125 7.47265625 5.125
v -3.353515625 8.59375 -1.525390625
v -3.861328125 7.16796875 4.73828125
v -3.80859375 8.0234375 -0.97412109375
v -4.10546875 6.92578125 4.32421875
v -4.046875 7.609375 -0.451904296875
v -4.31640625 6.73046875 3.693359375
v -4.38671875 6.671875 3.259765625
v -4.23046875 7.26953125 0.032379150390625
v -4.4375 6.65625 2.337890625
v -4.42578125 6.7421875 1.6064453125
v 4.31640625 6.73046875 3.693359375
vt 0.58544921875 0.00830078125
vt 0.47509765625 0.7652587890625
vt 0.5263671875 0.00244140625
vt 0.65771484375 0.021484375
vt 0.603515625 0.7652587890625
vt 0.467529296875 0.00048828125
vt 0.347412109375 0.748046875
vt 0.394287109375 0.00390625
vt 0.3173828125 0.01220703125
vt 0.2509765625 0.724609375
vt 0.18408203125 0.7041015625
vt 0.2396240234375 0.03173828125
vt 0.1405029296875 0.678955078125
vt 0.1697998046875 0.0673828125
vt 0.09149169921875 0.648193359375
vt 0.1092529296875 0.1240234375
vt 0.056884765625 0.61376953125
vt 0.06805419921875 0.17578125
vt 0.01309967041015625 0.520751953125
vt 0.038299560546875 0.2236328125
vt 0.00019991397857666016 0.4384765625
vt 9.9956989288330078e-05 0.37158203125
vt 0.70263671875 0.7550048828125
vt 0.732421875 0.0400390625
vt 0.771484375 0.743896484375
vt 0.81591796875 0.0712890625
vt 0.81787109375 0.724609375
vt 0.88037109375 0.1162109375
vt 0.87060546875 0.700927734375
vt 0.9326171875 0.18017578125
vt 0.90966796875 0.67138671875
vt 0.96337890625 0.23681640625
vt 0.9482421875 0.621826171875
vt 0.9658203125 0.58544921875
vt 0.986328125 0.2880859375
vt 0.990234375 0.505126953125
vt 0.99951171875 0.439453125
vt 0.025390625 0.559326171875
vn -0.15294118225574493 0.9529411792755127 0.24705882370471954
vn 0.0039215688593685627 0.9686274528503418 0.25490197539329529
vn 0.0039215688593685627 0.9686274528503418 0.24705882370471954
vn -0.42745098471641541 0.88235294818878174 0.20784313976764679
vn -0.26274511218070984 0.93725490570068359 0.23921568691730499
vn 0.15294118225574493 0.9529411792755127 0.24705882370471954
vn 0.26274511218070984 0.93725490570068359 0.23921568691730499
vn 0.42745098471641541 0.88235294818878174 0.20784313976764679
vn 0.60000002384185791 0.78039216995239258 0.15294118225574493
vn 0.47450980544090271 0.85882353782653809 0.20000000298023224
vn 0.60784316062927246 0.78039216995239258 0.14509804546833038
vn 0.69411766529083252 0.71764707565307617 0.10588235408067703
vn 0.66274511814117432 0.74117648601531982 0.10588235408067703
vn 0.70980393886566162 0.70196080207824707 0.090196080505847931
vn 0.71764707565307617 0.69411766529083252 0.08235294371843338
vn 0.75686275959014893 0.65490198135375977 0.074509806931018829
vn 0.77254903316497803 0.63137257099151611 0.066666670143604279
vn 0.79607844352722168 0.60000002384185791 0.058823529630899429
vn 0.84313726425170898 0.5372549295425415 0.035294119268655777
vn 0.85098040103912354 0.52941179275512695 0.035294119268655777
vn 0.82745099067687988 0.56078433990478516 0.043137256056070328
vn 0.79607844352722168 0.60000002384185791 0.058823529630899429
vn -0.47450980544090271 0.85882353782653809 0.20000000298023224
vn -0.57647061347961426 0.80392158031463623 0.16078431904315948
vn -0.57647061347961426 0.80392158031463623 0.15294118225574493
vn -0.65490198135375977 0.74117648601531982 0.12941177189350128
vn -0.66274511814117432 0.74117648601531982 0.12156862765550613
vn -0.70196080207824707 0.70196080207824707 0.10588235408067703
vn -0.71764707565307617 0.69411766529083252 0.098039217293262482
vn -0.76470589637756348 0.63921570777893066 0.090196080505847931
vn -0.79607844352722168 0.60000002384185791 0.08235294371843338
vn -0.81960785388946533 0.56862747669219971 0.066666670143604279
vn -0.80392158031463623 0.59215688705444336 0.074509806931018829
vn -0.85098040103912354 0.5215686559677124 0.050980392843484879
vn -0.86666667461395264 0.49803921580314636 0.050980392843484879
vn -0.89019608497619629 0.45098039507865906 0.043137256056070328
vn -0.89803922176361084 0.44313725829124451 0.035294119268655777
vn 0.78823530673980713 0.60784316062927246 0.058823529630899429
f 1/1/1 2/2/2 3/3/3
f 4/4/4 5/5/5 1/1/1
f 6/6/6 2/2/2 7/7/7
f 7/7/7 8/8/8 6/6/6
f 9/9/9 10/10/10 11/11/11
f 12/12/12 11/11/11 13/13/13
f 14/14/14 13/13/13 15/15/15
f 16/16/16 15/15/15 17/17/17
f 17/17/17 18/18/18 16/16/16
f 18/18/18 19/19/19 20/20/20
f 20/20/20 21/21/21 22/22/22
f 23/23/23 24/24/24 25/25/25
f 25/25/25 26/26/26 27/27/27
f 27/27/27 28/28/28 29/29/29
f 29/29/29 30/30/30 31/31/31
f 31/31/31 32/32/32 33/33/33
f 34/34/34 32/32/32 35/35/35
f 36/36/36 35/35/35 37/37/37
f 1/1/1 5/5/5 2/2/2
f 4/4/4 23/23/23 5/5/5
f 6/6/6 3/3/3 2/2/2
f 7/7/7 10/10/10 8/8/8
f 9/9/9 8/8/8 10/10/10
f 12/12/12 9/9/9 11/11/11
f 14/14/14 12/12/12 13/13/13
f 16/16/16 14/14/14 15/15/15
f 17/17/17 38/38/38 18/18/18
f 18/18/18 38/38/38 19/19/19
f 20/20/20 19/19/19 21/21/21
f 23/23/23 4/4/4 24/24/24
f 25/25/25 24/24/24 26/26/26
f 27/27/27 26/26/26 28/28/28
f 29/29/29 28/28/28 30/30/30
f 31/31/31 30/30/30 32/32/32
f 34/34/34 33/33/33 32/32/32
f 36/36/36 34/34/34 35/35/35
