# exported with NifSkope

mtllib t45helm.mtl

# PA_T45_Helmet:3_t.001

g PA_T45_Helmet:3_t.001
usemtl Material.000001

v 5.7885713577270508 3.6210098266601563 121.18869018554688
v 5.7034463882446289 3.7324008941650391 121.08051300048828
v 5.4316987991333008 3.4214177131652832 122.55730438232422
v 3.8437738418579102 5.2186484336853027 120.61653900146484
v 4.9471359252929688 3.5305583477020264 122.97329711914063
v 3.4377903938293457 4.4456162452697754 122.63131713867188
v 3.1905972957611084 5.460698127746582 120.71408081054688
v 1.8678727149963379 5.298741340637207 122.08159637451172
v 2.0790503025054932 5.7187395095825195 121.1256103515625
v 1.3898589611053467 5.7610373497009277 121.33396911621094
v 1.3833105564117432 5.4034643173217773 122.07843780517578
v 0.43178486824035645 5.478734016418457 122.07617950439453
v 0.43423992395401001 5.7741284370422363 121.33358001708984
v -0.1005081906914711 5.7741284370422363 121.33358001708984
v -1.0558710098266602 5.7610373497009277 121.33396911621094
v -0.097949281334877014 5.478734016418457 122.07617950439453
v -1.0476853847503662 5.4067368507385254 122.07835388183594
v -1.5347037315368652 5.298741340637207 122.08159637451172
v -1.7450629472732544 5.7187395095825195 121.1256103515625
v -2.8566098213195801 5.460698127746582 120.71410369873047
v -3.105438232421875 4.4456167221069336 122.63133239746094
v -3.5097863674163818 5.2186489105224609 120.61654663085938
v -4.6164207458496094 3.5305595397949219 122.97331237792969
v -5.0977096557617188 3.4214189052581787 122.55732727050781
v -5.4578590393066406 3.6210103034973145 121.18869781494141
v -5.3727321624755859 3.7324013710021973 121.08052062988281
vt 0.31787100434303284 0.6118159294128418
vt 0.32055699825286865 0.6071779727935791
vt 0.3242189884185791 0.64038097858428955
vt 0.3693850040435791 0.592041015625
vt 0.33496099710464478 0.6489260196685791
vt 0.37231400609016418 0.6396479606628418
vt 0.38427698612213135 0.5942380428314209
vt 0.4101560115814209 0.62695300579071045
vt 0.40869098901748657 0.60302698612213135
vt 0.42309600114822388 0.6088869571685791
vt 0.42089799046516418 0.626708984375
vt 0.44116199016571045 0.62915003299713135
vt 0.44335898756980896 0.6120610237121582
vt 0.34497100114822388 0.65600597858428955
vt 0.36474600434303284 0.6523439884185791
vt 0.34716799855232239 0.6728520393371582
vt 0.36743199825286865 0.67041003704071045
vt 0.37817400693893433 0.6711430549621582
vt 0.3789060115814209 0.6462399959564209
vt 0.40356400609016418 0.63696300983428955
vt 0.4162600040435791 0.68286097049713135
vt 0.41870099306106567 0.63525402545928955
vt 0.45141598582267761 0.6914060115814209
vt 0.4643549919128418 0.68286097049713135
vt 0.47045901417732239 0.654541015625
vt 0.46777299046516418 0.64990198612213135
vn 0.62100905179977417 0.73609775304794312 0.26927280426025391
vn 0.59082597494125366 0.76066666841506958 0.26890683174133301
vn 0.55562949180603027 0.77670943737030029 0.29664501547813416
vn 0.45690500736236572 0.81575143337249756 0.35466521978378296
vn 0.44527342915534973 0.81345564126968384 0.37419447302818298
vn 0.36651274561882019 0.83908194303512573 0.4020073413848877
vn 0.3485298752784729 0.83979827165603638 0.41625207662582397
vn 0.26264390349388123 0.86468625068664551 0.42817732691764832
vn 0.27040165662765503 0.85802167654037476 0.43667119741439819
vn 0.11414018273353577 0.90225678682327271 0.41581818461418152
vn 0.12946239113807678 0.89338821172714233 0.43022900819778442
vn 0.041353322565555573 0.91496127843856812 0.40141716599464417
vn 0.012573941610753536 0.92909836769104004 0.36961895227432251
vn -0.012573941610753536 0.92909836769104004 0.36961895227432251
vn -0.11469321697950363 0.9028962254524231 0.41427507996559143
vn -0.039949852973222733 0.91570311784744263 0.39986473321914673
vn -0.13062380254268646 0.89465093612670898 0.42724359035491943
vn -0.26384079456329346 0.8647996187210083 0.42721149325370789
vn -0.27033838629722595 0.85813665390014648 0.43648448586463928
vn -0.34849831461906433 0.83991783857345581 0.41603720188140869
vn -0.36641311645507813 0.83924663066864014 0.40175431966781616
vn -0.47036468982696533 0.80610835552215576 0.35909101366996765
vn -0.44603645801544189 0.81348621845245361 0.37321791052818298
vn -0.52484101057052612 0.79426568746566772 0.30607837438583374
vn -0.54139071702957153 0.77602690458297729 0.32354035973548889
vn -0.51590102910995483 0.76625216007232666 0.38301926851272583
f 1/1/1 2/2/2 3/3/3
f 2/2/2 4/4/4 3/3/3
f 3/3/3 4/4/4 5/5/5
f 4/4/4 6/6/6 5/5/5
f 4/4/4 7/7/7 6/6/6
f 7/7/7 8/8/8 6/6/6
f 7/7/7 9/9/9 8/8/8
f 9/9/9 10/10/10 8/8/8
f 8/8/8 10/10/10 11/11/11
f 10/10/10 12/12/12 11/11/11
f 10/10/10 13/13/13 12/12/12
f 14/14/14 15/15/15 16/16/16
f 15/15/15 17/17/17 16/16/16
f 17/17/17 15/15/15 18/18/18
f 15/15/15 19/19/19 18/18/18
f 18/18/18 19/19/19 20/20/20
f 18/18/18 20/20/20 21/21/21
f 20/20/20 22/22/22 21/21/21
f 21/21/21 22/22/22 23/23/23
f 22/22/22 24/24/24 23/23/23
f 24/24/24 22/22/22 25/25/25
f 22/22/22 26/26/26 25/25/25
